HIERARCHY
ROOT hip
{
	OFFSET 0.00000 0.00000 0.00000
	CHANNELS 6 Xposition Yposition Zposition Zrotation Yrotation Xrotation
	JOINT lhipjoint
	{
		OFFSET 0 0 0
		CHANNELS 3 Zrotation Yrotation Xrotation
		JOINT lfemur
		{
			OFFSET 1.57314 -1.85774 0.63783
			CHANNELS 3 Zrotation Yrotation Xrotation
			JOINT ltibia
			{
				OFFSET 2.57982 -7.08799 0.00000
				CHANNELS 3 Zrotation Yrotation Xrotation
				JOINT lfoot
				{
					OFFSET 2.63993 -7.25315 0.00000
					CHANNELS 3 Zrotation Yrotation Xrotation
					JOINT ltoes
					{
						OFFSET 0.16864 -0.46332 2.12791
						CHANNELS 3 Zrotation Yrotation Xrotation
						End Site
						{
							OFFSET 0.00000 -0.00000 1.09718
						}
					}
				}
			}
		}
	}
	JOINT rhipjoint
	{
		OFFSET 0 0 0
		CHANNELS 3 Zrotation Yrotation Xrotation
		JOINT rfemur
		{
			OFFSET -1.56006 -1.85774 0.63784
			CHANNELS 3 Zrotation Yrotation Xrotation
			JOINT rtibia
			{
				OFFSET -2.54246 -6.98536 0.00000
				CHANNELS 3 Zrotation Yrotation Xrotation
				JOINT rfoot
				{
					OFFSET -2.65791 -7.30256 0.00000
					CHANNELS 3 Zrotation Yrotation Xrotation
					JOINT rtoes
					{
						OFFSET -0.18435 -0.50650 2.16316
						CHANNELS 3 Zrotation Yrotation Xrotation
						End Site
						{
							OFFSET -0.00000 -0.00000 1.11780
						}
					}
				}
			}
		}
	}
	JOINT lowerback
	{
		OFFSET 0 0 0
		CHANNELS 3 Zrotation Yrotation Xrotation
		JOINT upperback
		{
			OFFSET -0.00136 1.92812 -0.29638
			CHANNELS 3 Zrotation Yrotation Xrotation
			JOINT thorax
			{
				OFFSET -0.00528 1.96223 -0.02928
				CHANNELS 3 Zrotation Yrotation Xrotation
				JOINT lowerneck
				{
					OFFSET 0 0 0
					CHANNELS 3 Zrotation Yrotation Xrotation
					JOINT upperneck
					{
						OFFSET -0.01015 1.75586 0.07797
						CHANNELS 3 Zrotation Yrotation Xrotation
						JOINT head
						{
							OFFSET 0.05540 1.72452 0.04558
							CHANNELS 3 Zrotation Yrotation Xrotation
							End Site
							{
								OFFSET 0.02170 1.79958 0.00864
							}
						}
					}
				}
				JOINT lclavicle
				{
					OFFSET 0 0 0
					CHANNELS 3 Zrotation Yrotation Xrotation
					JOINT lhumerus
					{
						OFFSET 3.16292 1.29277 -0.65728
						CHANNELS 3 Zrotation Yrotation Xrotation
						JOINT lradius
						{
							OFFSET 5.52302 -0.00000 -0.00000
							CHANNELS 3 Zrotation Yrotation Xrotation
							JOINT lwrist
							{
								OFFSET 3.58675 -0.00000 -0.00000
								CHANNELS 3 Zrotation Yrotation Xrotation
								JOINT lhand
								{
									OFFSET 0 0 0
									CHANNELS 3 Zrotation Yrotation Xrotation
									JOINT lfingers
									{
										OFFSET 0.53641 -0.00000 -0.00000
										CHANNELS 3 Zrotation Yrotation Xrotation
										End Site
										{
											OFFSET 0.43247 -0.00000 -0.00000
										}
									}
								}
								JOINT lthumb
								{
									OFFSET 0 0 0
									CHANNELS 3 Zrotation Yrotation Xrotation
									End Site
									{
										OFFSET 0.43907 -0.00000 0.43907
									}
								}
							}
						}
					}
				}
				JOINT rclavicle
				{
					OFFSET 0 0 0
					CHANNELS 3 Zrotation Yrotation Xrotation
					JOINT rhumerus
					{
						OFFSET -3.08296 1.43376 -0.52927
						CHANNELS 3 Zrotation Yrotation Xrotation
						JOINT rradius
						{
							OFFSET -5.84780 -0.00000 0.00000
							CHANNELS 3 Zrotation Yrotation Xrotation
							JOINT rwrist
							{
								OFFSET -3.62717 -0.00000 -0.00000
								CHANNELS 3 Zrotation Yrotation Xrotation
								JOINT rhand
								{
									OFFSET 0 0 0
									CHANNELS 3 Zrotation Yrotation Xrotation
									JOINT rfingers
									{
										OFFSET -0.65052 -0.00000 -0.00000
										CHANNELS 3 Zrotation Yrotation Xrotation
										End Site
										{
											OFFSET -0.52446 -0.00000 -0.00000
										}
									}
								}
								JOINT rthumb
								{
									OFFSET 0 0 0
									CHANNELS 3 Zrotation Yrotation Xrotation
									End Site
									{
										OFFSET -0.53247 -0.00000 0.53247
									}
								}
							}
						}
					}
				}
			}
		}
	}
}
MOTION
Frames: 15
Frame Time: 0.033333
2.5295 -3.0644 -2.5898 2.2191 7.9569 -7.4438 1.2945 13.7067 5.8996 0.1355 -1.3161 14.3808 -6.6058 9.1290 8.2435 3.4861 -5.8508 12.5614 -9.9594 -10.2011 -3.3551 -14.9224 -22.4461 13.2464 16.4639 18.4741 -10.4412 13.1406 -21.9325 4.2493 -17.0802 8.2997 -27.2499 7.9522 -9.7859 0.2839 2.6079 -4.6814 7.8464 -1.7991 -5.1899 -2.1318 5.6247 3.7695 -2.7087 -4.8561 -2.8290 -8.0403 3.0918 1.0934 0.4668 3.2415 -0.1581 -3.2646 -2.5057 -1.4305 -3.7361 -2.4498 0.1891 0.8696 2.5558 -10.6587 -1.4759 6.1251 -5.1454 -6.6993 3.4149 1.4705 0.1992 -1.8624 -1.7158 0.0173 -1.0576 0.0694 0.8215 0.0000 3.6235 3.4556 3.0029 0.0000 0.0000 0.0000 0.0000 0.0000 0.0000 0.0000 0.0000 0.0000 0.0000 0.0000 0.0000 0.0000 0.0000 0.0000 0.0000 0.0000
-18.2465 20.9823 19.5753 -15.5105 -55.5084 52.8534 -9.4254 -94.8902 -41.1789 -0.9828 8.7166 -100.3865 46.1692 -63.2526 -57.3192 -24.3365 40.7398 -87.5139 68.8047 71.2814 22.8316 103.6719 156.9383 -92.4099 -114.6890 -128.4750 72.5277 -91.3650 153.0516 -29.9246 118.9421 -57.7860 189.1645 -55.0586 67.8630 -2.5870 -17.9358 32.9607 -54.6588 12.6764 36.1405 14.7189 -39.2309 -26.1827 18.9390 33.9167 19.6316 55.9968 -21.7372 -8.0089 -3.6062 -22.4191 1.5025 22.4812 17.9114 9.9716 26.1028 17.0148 -1.3249 -6.0654 -17.8073 74.2728 10.0053 -42.3200 36.2046 47.0594 -23.5309 -10.1501 -1.3317 13.0091 11.9746 -0.1177 7.3495 -0.4940 -5.7153 -0.0000 -26.2450 -24.9979 -21.7840 0.0000 0.0000 0.0000 0.0000 0.0000 0.0000 0.0000 0.0000 0.0000 0.0000 0.0000 0.0000 0.0000 0.0000 0.0000 0.0000 0.0000
-8.6853 10.5633 8.9178 -7.6806 -27.6130 25.5757 -4.3922 -47.4675 -20.3784 -0.4622 4.6438 -49.7182 22.8452 -31.7207 -28.5484 -12.0585 20.2488 -43.4639 34.5644 35.2352 11.7104 51.6729 77.5426 -45.7898 -56.9401 -63.9698 36.1592 -45.4795 75.8261 -14.6089 59.0795 -28.7118 94.3906 -27.5520 33.9264 -0.8816 -9.0684 16.1522 -27.1695 6.2101 17.9854 7.3880 -19.4521 -13.0492 9.3377 16.7369 9.7988 27.8464 -10.6345 -3.6832 -1.5267 -11.2726 0.4750 11.3479 8.5791 4.9428 12.9106 8.4756 -0.6519 -3.0068 -8.8375 36.8453 5.2196 -21.2536 17.7219 23.0857 -11.8604 -5.1038 -0.7051 6.4342 5.9301 -0.0609 3.6625 -0.2372 -2.8431 -0.0000 -12.4761 -11.7179 -10.1790 0.0000 0.0000 0.0000 0.0000 0.0000 0.0000 0.0000 0.0000 0.0000 0.0000 0.0000 0.0000 0.0000 0.0000 0.0000 0.0000 0.0000
18.0230 -19.0052 -21.7977 15.0074 52.2620 -52.5949 10.4001 85.5133 38.3642 1.1560 -6.6938 93.2065 -43.0836 56.8256 52.1480 22.7679 -37.7768 80.9534 -61.3217 -66.8380 -19.0160 -94.8326 -146.4280 85.1585 105.5977 117.2334 -65.9411 83.3367 -141.6829 28.5358 -109.4973 52.7588 -171.8607 49.5134 -61.7694 3.9541 15.9561 -30.7115 50.0596 -11.9096 -32.9124 -13.0683 36.3036 23.7741 -18.1420 -31.8378 -17.8987 -51.2600 21.4045 9.6485 4.8437 20.0226 -2.8176 -19.9911 -18.5702 -9.4996 -24.5488 -15.6914 1.3044 5.7336 16.7089 -69.7447 -7.9465 38.4986 -35.1080 -45.3615 21.2282 9.2159 1.0074 -12.2840 -11.2650 0.0944 -6.8210 0.4988 5.3218 0.0000 26.4264 25.3955 22.3928 0.0000 0.0000 0.0000 0.0000 0.0000 0.0000 0.0000 0.0000 0.0000 0.0000 0.0000 0.0000 0.0000 0.0000 0.0000 0.0000 0.0000
-12.5002 12.2577 14.2776 -9.8192 -35.2515 33.1462 -5.6396 -59.1905 -25.6890 -0.3419 5.5038 -63.1978 29.1236 -40.4606 -36.2613 -15.0989 25.3220 -54.8662 43.2944 44.0873 14.6602 64.8505 98.5955 -58.3587 -71.8695 -81.1329 45.9340 -57.8316 96.4250 -18.7660 74.4602 -36.9800 118.9428 -35.1610 41.7769 -2.0538 -11.0691 21.8690 -34.2513 8.3523 22.8326 9.3373 -24.9122 -16.7970 12.0579 21.1020 12.3932 35.2488 -13.4094 -4.3906 -1.8983 -14.5082 0.4791 14.4093 10.8276 6.2691 16.3182 10.6886 -0.8214 -3.7644 -11.1230 46.4960 6.6177 -26.8384 22.3461 29.1229 -14.9642 -6.4351 -0.8972 8.1112 7.4759 -0.0761 4.6213 -0.2988 -3.5859 -0.0000 -18.0768 -17.7387 -15.6660 0.0000 0.0000 0.0000 0.0000 0.0000 0.0000 0.0000 0.0000 0.0000 0.0000 0.0000 0.0000 0.0000 0.0000 0.0000 0.0000 0.0000
-10.4690 16.1738 7.7691 -10.2308 -36.9355 33.7388 -5.5761 -69.1664 -29.0410 -0.9744 7.3016 -69.9915 31.7436 -44.6455 -40.5607 -17.0708 28.8064 -61.4839 50.3425 50.0830 17.4346 73.9528 109.0026 -64.6611 -81.1569 -90.9442 51.4165 -64.5481 107.0263 -20.2682 84.2866 -40.3463 135.1972 -39.1516 49.4755 -0.0216 -13.2323 21.6816 -38.8754 8.3240 25.6901 10.7574 -27.1662 -18.2452 12.4518 23.7720 13.8907 39.5813 -14.3357 -4.3342 -1.8129 -15.6235 0.5030 15.9050 11.3137 6.6482 17.9727 11.9056 -0.8598 -4.1579 -12.2527 50.9197 7.6616 -29.5485 24.3652 31.8026 -16.5079 -7.1028 -1.0340 8.9232 8.2324 -0.0924 5.0770 -0.3256 -3.9484 -0.0000 -14.6656 -13.5416 -11.4001 0.0000 0.0000 0.0000 0.0000 0.0000 0.0000 0.0000 0.0000 0.0000 0.0000 0.0000 0.0000 0.0000 0.0000 0.0000 0.0000 0.0000
16.9362 -9.1487 -30.6326 11.1504 36.0719 -49.4536 12.4812 47.4718 25.5265 1.2738 1.6331 63.1147 -29.7988 31.8096 31.9762 15.3948 -24.2650 52.3939 -31.2574 -46.4292 -4.8165 -57.6792 -102.1777 56.7009 68.0094 72.2326 -39.7258 51.5849 -94.6719 23.0232 -69.9233 33.5427 -101.8033 27.7115 -35.3852 10.3140 7.3964 -24.0102 31.6177 -9.5893 -20.3425 -6.4832 24.5472 14.6793 -13.2774 -21.3676 -10.6677 -33.4777 17.4227 13.4371 7.2610 12.2775 -6.7639 -10.8263 -19.0911 -7.1024 -17.7934 -9.8654 1.0136 4.2235 11.8723 -49.2088 -2.5086 22.1985 -29.8545 -37.2971 11.3330 5.1064 -0.0266 -9.0345 -8.1705 0.0152 -4.5703 0.4719 3.6403 0.0000 27.2125 27.0547 25.6302 0.0000 0.0000 0.0000 0.0000 0.0000 0.0000 0.0000 0.0000 0.0000 0.0000 0.0000 0.0000 0.0000 0.0000 0.0000 0.0000 0.0000
-3.6328 -0.5870 8.4702 -1.4950 -3.1590 8.4313 -2.7831 1.1100 -1.5199 -0.3449 -2.1797 -4.1757 2.2399 0.0162 -0.8389 -1.0129 1.1121 -2.4915 -1.5487 3.0052 -2.4350 1.3070 7.7532 -3.4057 -2.9434 -2.2088 0.9726 -1.8144 5.9235 -2.7855 2.8839 -1.7558 1.2351 -0.0135 -0.5852 -3.6769 0.9684 3.4218 -1.1056 1.4272 0.5409 -0.4255 -1.8617 -0.7190 1.6801 1.3946 0.2823 1.6024 -2.4067 -3.3867 -1.7939 -0.6496 1.8217 0.0824 3.5453 0.8892 1.6532 0.4759 -0.1354 -0.4255 -1.1015 4.5184 -0.7617 -0.6462 4.1533 4.8749 -0.0237 -0.0690 0.2244 0.9048 0.7847 0.0169 0.3494 -0.0748 -0.2955 -0.0000 -5.6717 -7.7232 -7.3993 0.0000 0.0000 0.0000 0.0000 0.0000 0.0000 0.0000 0.0000 0.0000 0.0000 0.0000 0.0000 0.0000 0.0000 0.0000 0.0000 0.0000
8.0204 -7.0132 -9.0836 6.1656 18.9448 -22.0888 5.0076 42.2120 19.1803 -0.3755 -3.0135 44.1358 -19.5815 24.2981 24.4333 9.9542 -16.9418 38.3474 -28.9190 -32.0689 -8.6775 -43.9497 -68.4917 39.6688 50.4789 55.1131 -31.5527 39.2178 -66.6240 12.6180 -51.5533 25.3607 -81.2009 23.5775 -28.5158 2.4128 6.8202 -15.7243 23.5343 -5.5848 -15.8996 -6.6035 16.7144 10.8869 -8.8328 -16.2815 -8.4068 -22.5465 10.2235 3.2190 4.1877 6.9343 -2.0163 -7.5034 -8.3652 -3.7231 -10.6148 -7.0442 0.6120 2.2647 6.7943 -29.1956 -1.0943 15.8656 -14.3397 -18.8615 8.7775 3.8967 0.2434 -5.1704 -4.6843 0.0390 -2.7593 0.2487 2.1801 0.0000 12.2595 11.8551 12.1187 0.0000 0.0000 0.0000 0.0000 0.0000 0.0000 0.0000 0.0000 0.0000 0.0000 0.0000 0.0000 0.0000 0.0000 0.0000 0.0000 0.0000
8.4655 -18.4127 1.9241 9.9068 41.1001 -22.7876 -0.7726 80.6771 29.6321 0.5772 -13.5902 74.0953 -33.5496 56.9932 46.8194 17.9782 -31.2470 66.2186 -63.1999 -49.2324 -27.0774 -83.6284 -112.5671 70.7597 88.0674 104.1709 -59.6053 73.9263 -114.9675 18.2591 -92.1127 46.3478 -156.7026 47.9244 -56.2908 -5.7862 16.8129 -23.0050 43.4236 -8.7157 -29.5437 -13.5035 29.6627 21.7156 -11.5765 -22.7105 -16.0590 -45.0836 10.6399 -3.8380 -4.6831 21.0167 5.6377 -21.2580 -4.5450 -6.5580 -18.1390 -13.1663 0.6749 4.1707 12.6973 -52.4877 -14.6387 35.9289 -20.3613 -27.6473 20.8317 8.6892 2.1428 -8.8588 -8.3631 0.1583 -5.6125 0.1670 4.2648 0.0000 10.8108 7.7298 5.5087 0.0000 0.0000 0.0000 0.0000 0.0000 0.0000 0.0000 0.0000 0.0000 0.0000 0.0000 0.0000 0.0000 0.0000 0.0000 0.0000 0.0000
-8.3520 10.1529 5.4091 -6.6254 -23.3111 22.1912 -3.4680 -49.7420 -21.3595 -1.1360 4.7057 -51.4388 23.1966 -31.7930 -29.1699 -12.5822 20.7856 -44.0628 36.5398 35.9271 12.0227 52.7718 80.4577 -48.0233 -59.0525 -66.1803 37.1950 -46.8977 78.7826 -15.2307 61.2564 -30.1489 97.3850 -28.4516 34.5811 -1.9037 -8.7343 17.8365 -28.3667 6.7831 19.2768 8.0400 -19.7337 -13.1424 8.4182 16.1321 9.7911 29.1787 -9.4960 -1.2160 -1.8107 -10.8132 1.1473 10.1855 7.9279 4.0351 12.4476 8.0019 -0.5367 -2.7178 -7.9950 33.3870 5.5028 -18.7007 16.7777 21.8039 -10.2324 -4.4553 -0.6820 6.0201 5.5419 -0.0675 3.3111 -0.2373 -2.5978 -0.0000 -11.9763 -12.3693 -11.7618 0.0000 0.0000 0.0000 0.0000 0.0000 0.0000 0.0000 0.0000 0.0000 0.0000 0.0000 0.0000 0.0000 0.0000 0.0000 0.0000 0.0000
-2.2701 2.4967 2.1916 -1.8961 -8.5429 2.6353 1.0219 -12.1555 -3.6045 -0.1466 3.6033 -9.8381 4.1861 -11.3137 -7.7724 -2.2111 4.2925 -9.5206 11.4220 5.4447 6.4858 13.1608 14.0644 -9.5490 -12.3473 -16.4427 9.6303 -11.6082 16.0059 -1.5617 13.2859 -7.0194 24.9754 -8.2044 9.1373 2.8985 -3.1886 2.9711 -6.6260 1.2680 4.6028 2.2926 -4.4325 -3.5554 0.8544 3.2430 2.5709 7.0247 0.0265 2.0578 3.0579 -4.5899 -2.7856 4.7605 -1.4948 1.0070 2.4821 2.1120 -0.0026 -0.5819 -1.9949 7.8225 4.5904 -7.0590 1.6506 2.5650 -4.3056 -1.7141 -0.6533 1.1991 1.1918 -0.0433 0.9717 0.0373 -0.7080 -0.0000 -1.7409 -1.1674 0.7529 0.0000 0.0000 0.0000 0.0000 0.0000 0.0000 0.0000 0.0000 0.0000 0.0000 0.0000 0.0000 0.0000 0.0000 0.0000 0.0000 0.0000
4.6060 -0.3004 -10.2099 2.0460 2.2071 -14.4215 5.0157 6.9025 5.4706 0.3604 2.4899 11.5265 -4.2848 1.4025 4.8867 1.9821 -3.1232 8.6445 -2.7317 -9.1787 1.5649 -8.2136 -19.3550 9.7457 12.0834 10.8428 -6.1857 8.2347 -17.1650 5.4668 -11.7838 5.8883 -14.1387 3.4007 -4.0509 4.6931 -0.5807 -6.7569 5.0932 -2.5425 -3.1976 -0.7184 4.5417 2.0482 -2.3832 -5.6630 -1.4226 -5.0302 3.8592 4.7310 3.3089 0.7203 -3.1703 -0.3594 -5.4742 -1.2025 -3.3677 -1.4489 0.1630 0.6730 1.9938 -8.2367 1.6985 1.5470 -6.9683 -8.4207 0.3455 0.2854 -0.3763 -1.6780 -1.4469 -0.0152 -0.6202 0.1462 0.5537 0.0000 9.6401 11.2079 10.5722 0.0000 0.0000 0.0000 0.0000 0.0000 0.0000 0.0000 0.0000 0.0000 0.0000 0.0000 0.0000 0.0000 0.0000 0.0000 0.0000 0.0000
-0.7811 -4.9324 3.2121 1.8197 7.5845 -4.6912 0.2358 16.3252 5.7305 1.2240 -3.0395 13.2305 -5.4670 10.4359 8.6762 3.6181 -6.3489 12.3822 -13.0689 -9.9006 -5.6916 -16.9570 -20.4379 12.4996 16.8972 19.3091 -10.7533 13.5043 -21.1858 3.6983 -18.2362 7.3671 -30.1794 8.4398 -12.9227 -2.9335 3.8511 -1.5189 8.4969 -0.8990 -5.3484 -2.5281 5.1159 3.5206 -1.1791 -4.3806 -2.9376 -8.8673 1.5662 -0.2178 -1.3068 3.9025 0.8858 -4.0829 -0.7241 -1.1435 -3.4960 -2.4741 0.0589 0.8687 2.6001 -10.0476 -3.2918 6.2851 -4.7168 -6.1180 3.5426 1.4662 0.3920 -1.7846 -1.6938 0.0319 -1.0702 0.0418 0.8351 0.0000 -1.6386 -4.3822 -4.3624 0.0000 0.0000 0.0000 0.0000 0.0000 0.0000 0.0000 0.0000 0.0000 0.0000 0.0000 0.0000 0.0000 0.0000 0.0000 0.0000 0.0000
0.3448 -0.1729 4.7739 -2.6720 -6.7501 2.4533 -1.2246 8.1980 2.4450 -0.5021 0.2857 5.6736 -1.8457 1.3444 3.9168 0.5986 -1.0526 3.6498 -4.4673 -3.9109 -1.3698 -4.8330 -9.2478 7.0758 7.8738 8.2280 -4.6632 5.8023 -9.0604 1.8783 -7.0595 4.3542 -12.0496 2.7440 -3.6259 1.9880 -0.0777 -4.4619 4.5481 -1.1526 -3.5150 -1.1850 1.6979 1.3806 1.0249 -0.8946 -0.7539 -4.0432 -1.3107 -3.4518 0.1560 0.1298 -0.7688 0.6346 0.6877 1.0299 -0.2183 0.0603 -0.1654 -0.2281 -0.5596 2.4245 -0.6997 -2.3326 -0.0153 0.0600 -1.6230 -0.6433 0.0092 0.1431 0.1323 0.0147 0.2638 0.0236 -0.1525 0.0000 0.4166 1.0598 1.1122 0.0000 0.0000 0.0000 0.0000 0.0000 0.0000 0.0000 0.0000 0.0000 0.0000 0.0000 0.0000 0.0000 0.0000 0.0000 0.0000 0.0000
